<svg width="30" height="28" viewBox="0 0 30 28" fill="none" xmlns="http://www.w3.org/2000/svg">
<path d="M27.5063 16.3605L29.9684 5.52711C30.1462 4.74493 29.5516 4.00008 28.7495 4.00008H8.29208L7.81469 1.66623C7.69573 1.08451 7.18386 0.666748 6.59005 0.666748H1.25C0.559636 0.666748 0 1.22638 0 1.91675V2.75008C0 3.44045 0.559636 4.00008 1.25 4.00008H4.88974L8.54849 21.8873C7.67318 22.3907 7.08333 23.3346 7.08333 24.4168C7.08333 26.0276 8.38917 27.3334 10 27.3334C11.6108 27.3334 12.9167 26.0276 12.9167 24.4168C12.9167 23.6004 12.5809 22.8628 12.0404 22.3334H22.9595C22.4191 22.8628 22.0833 23.6004 22.0833 24.4168C22.0833 26.0276 23.3892 27.3334 25 27.3334C26.6108 27.3334 27.9167 26.0276 27.9167 24.4168C27.9167 23.262 27.2454 22.264 26.2719 21.7915L26.5593 20.5271C26.737 19.7449 26.1425 19.0001 25.3404 19.0001H11.3603L11.0194 17.3334H26.2873C26.871 17.3334 27.3769 16.9296 27.5063 16.3605Z" fill="white"/>
</svg>
